# xmcd
#
# Track frame offsets: 
#        150
#        10847
#        24753
#        34574
#        47403
#        58667
#        71310
#        82595
#        93234
#        106186
#        117510
#        129702
#        141644
#        154406
#        174096
#        184936
#        193215
#
# Disc length: 2738 seconds
#
# Revision: 0
# Processed by: cddbd v1.5.2PL0 Copyright (c) Steve Scherf et al.
# Submitted via: ExactAudioCopyFreeDBPlugin 1.0
#
DISCID=d70ab011
DTITLE=Screamin' Jay Hawkins - The Singles Collection [CD2]
DYEAR=2013
DGENRE=Blues
TTITLE0=There's Something Wrong With You
TTITLE1=Alligator Wine
TTITLE2=The Past
TTITLE3=Orange Coloured Sky
TTITLE4=Armpit No. 6
TTITLE5=Darling, Please, Forgive Me
TTITLE6=Take Me Back
TTITLE7=Hong Kong
TTITLE8=Screamin' Jay Hawkins - Shoutin' Pat - Why Did You Waste My Tim
TTITLE8=e
TTITLE9=Screamin' Jay Hawkins - Shoutin' Pat - Nitty Gritty
TTITLE10=Take Me Back to My Boots
TTITLE11=Temptation
TTITLE12=If You Are But a Dream
TTITLE13=Ol' Man River
TTITLE14=I Love Paris
TTITLE15=Swing Low, Sweet Chariot
TTITLE16=Deep Purple
EXTD=
EXTT0=
EXTT1=
EXTT2=
EXTT3=
EXTT4=
EXTT5=
EXTT6=
EXTT7=
EXTT8=
EXTT9=
EXTT10=
EXTT11=
EXTT12=
EXTT13=
EXTT14=
EXTT15=
EXTT16=
PLAYORDER=
